<svg width="56" height="30" viewBox="0 0 56 30" fill="none" xmlns="http://www.w3.org/2000/svg">
<path d="M31.8015 0C23.0544 0 15.4157 5.13469 11.1642 9.52781L2.67373 3.33563C1.49443 2.475 -0.266267 3.39188 0.0351217 4.71L2.38596 15L0.0341495 25.2909C-0.26724 26.6091 1.49346 27.525 2.67276 26.6653L11.1632 20.4731C15.4147 24.8653 23.0544 30 31.8015 30C45.1657 30 56.0001 18 56.0001 15C56.0001 12 45.1657 0 31.8015 0ZM40.3017 17.25C39.0135 17.25 37.9683 16.2422 37.9683 15C37.9683 13.7569 39.0135 12.75 40.3017 12.75C41.5908 12.75 42.635 13.7569 42.635 15C42.635 16.2422 41.5899 17.25 40.3017 17.25Z" fill="white"/>
</svg>
