<svg width="49" height="51" viewBox="0 0 49 51" fill="none" xmlns="http://www.w3.org/2000/svg">
<g clip-path="url(#clip0_0_35)">
<path d="M35.6508 33.9681C37.0279 35.2536 38.3624 36.5343 39.7514 37.7553C39.9789 37.956 40.4506 37.9799 40.7848 37.9298C42.2069 37.7219 43.5106 37.8629 44.6388 38.8784C45.6367 39.7744 46.708 40.5892 47.6822 41.5091C49.2868 43.024 49.429 45.2104 48.1017 46.9642C45.9235 49.8459 43.7808 50.08 41.0265 47.7336C40.2467 47.0693 39.4646 46.4027 38.699 45.7217C37.2294 44.4171 36.8122 42.7899 37.6087 41.0145C37.8955 40.3741 37.7935 40.0229 37.31 39.5976C36.068 38.5056 34.8615 37.373 33.6006 36.2213C31.7139 37.7577 29.9125 39.3347 28.0021 40.7612C20.9411 46.0395 13.0932 49.4492 4.35891 50.6822C3.31126 50.8303 2.24228 50.8399 1.19227 50.9761C0.293946 51.0931 -0.101885 50.718 0.0237381 49.8554C0.393496 47.2772 0.668444 44.6727 1.21834 42.1328C2.89173 34.4245 5.9209 27.3135 10.7728 21.058C11.2089 20.4965 11.6711 19.9541 12.1357 19.4165C12.5955 18.886 13.0743 18.3723 13.5863 17.806C12.4722 16.7881 11.4412 15.8132 10.3627 14.8957C10.1613 14.7236 9.72514 14.6615 9.46915 14.7523C7.75547 15.3664 6.17925 15.3186 4.75474 14.0259C3.79005 13.1514 2.75426 12.3581 1.80142 11.4764C0.109067 9.90891 -0.0355179 7.77993 1.37478 5.94007C3.12875 3.65577 5.33071 3.02257 7.28379 4.39411C8.63245 5.34032 9.88868 6.43946 11.0999 7.56249C12.221 8.60189 12.2826 9.97821 12.0622 11.4214C12.0053 11.7942 12.1428 12.3366 12.3964 12.5922C13.4535 13.6532 14.5889 14.6352 15.7171 15.6627C17.7603 14.1669 19.7347 12.6161 21.8134 11.2207C29.3199 6.17901 37.5304 2.68089 46.1557 0.126585C47.6016 -0.301123 48.4264 0.363138 48.4312 1.91866C48.4525 9.05828 46.6559 15.763 43.6267 22.1667C41.7044 26.2335 39.1469 29.875 36.2149 33.2584C36.0372 33.4663 35.8736 33.6861 35.6508 33.9681ZM18.2485 22.1356C17.2791 23.1774 16.3405 24.0782 15.5204 25.0794C13.2094 27.9037 13.4772 32.3433 16.0679 35.0672C18.6183 37.7482 22.9629 38.195 25.8404 35.9609C27.1583 34.9382 28.3173 33.7076 29.6091 32.5153C25.7906 29.0291 22.0978 25.6553 18.2485 22.1356ZM20.396 19.9899C24.2049 23.4737 27.912 26.8643 31.7779 30.3983C32.8279 29.0506 33.9751 27.9204 34.7098 26.5632C36.1912 23.8202 35.6176 20.4511 33.5152 18.0784C31.5764 15.892 28.2652 15.1035 25.4209 16.0569C23.3327 16.7594 22.0409 18.4225 20.396 19.9899ZM44.5748 46.4194C45.0014 45.8961 45.511 45.3633 45.895 44.7468C46.023 44.5413 45.9353 43.9965 45.7481 43.8269C44.6696 42.852 43.539 41.9321 42.4084 41.0169C41.8656 40.5773 41.311 40.7206 41.0099 41.2797C40.7042 41.8484 40.2135 42.8568 40.4198 43.0742C41.5267 44.2307 42.8279 45.2032 44.0652 46.2306C44.1481 46.3023 44.2761 46.3143 44.5748 46.4194ZM4.86851 6.50159C4.41817 7.07266 3.89671 7.55293 3.6265 8.15029C3.4914 8.44658 3.68339 9.08934 3.94649 9.34501C4.88273 10.2458 5.9209 11.0367 6.90692 11.8874C7.80524 12.6615 8.26033 11.885 8.71778 11.3378C9.17998 10.7858 9.60899 10.1718 8.78652 9.51227C7.83368 8.74765 6.91877 7.93285 5.97067 7.16107C5.70758 6.94124 5.38285 6.80265 4.86851 6.50159Z" fill="white"/>
</g>
<defs>
<clipPath id="clip0_0_35">
<rect width="49" height="51" fill="white"/>
</clipPath>
</defs>
</svg>
